HIERARCHY
ROOT Spine
{
    OFFSET 0.0 0.0 -0.0
    CHANNELS 6 Xposition Yposition Zposition Zrotation Xrotation Yrotation
    JOINT ShoulderCenter
    {
        OFFSET 0.0 32.78681945800781 0.0
        CHANNELS 3 Zrotation Xrotation Yrotation
        JOINT LeftShoulder
        {
            OFFSET 19.048067092895508 0.0 0.0
            CHANNELS 3 Zrotation Xrotation Yrotation
            JOINT LeftElbow
            {
                OFFSET 28.856948852539062 0.0 0.0
                CHANNELS 3 Zrotation Xrotation Yrotation
                JOINT LeftHand
                {
                    OFFSET 31.277847290039062 0.0 0.0
                    CHANNELS 3 Zrotation Xrotation Yrotation
                    End Site
                    {
                        OFFSET 12.511139869689941 0.0 0.0
                    }
                }
            }
        }
        JOINT RightShoulder
        {
            OFFSET -19.048067092895508 0.0 0.0
            CHANNELS 3 Zrotation Xrotation Yrotation
            JOINT RightElbow
            {
                OFFSET -28.856948852539062 0.0 0.0
                CHANNELS 3 Zrotation Xrotation Yrotation
                JOINT RightHand
                {
                    OFFSET -31.277847290039062 0.0 0.0
                    CHANNELS 3 Zrotation Xrotation Yrotation
                    End Site
                    {
                        OFFSET -12.511139869689941 0.0 0.0
                    }
                }
            }
        }
        End Site
        {
            OFFSET 0.0 13.114727973937988 0.0
        }
    }
    JOINT LeftHip
    {
        OFFSET 15.793534116434376 -15.793534116434376 0.0
        CHANNELS 3 Zrotation Xrotation Yrotation
        JOINT LeftKnee
        {
            OFFSET 0.0 -41.18320846557617 0.0
            CHANNELS 3 Zrotation Xrotation Yrotation
            JOINT LeftFoot
            {
                OFFSET 0.0 -48.454429626464844 0.0
                CHANNELS 3 Zrotation Xrotation Yrotation
                End Site
                {
                    OFFSET 0.0 0.0 19.381771087646484
                }
            }
        }
    }
    JOINT RightHip
    {
        OFFSET -15.793534116434376 -15.793534116434376 0.0
        CHANNELS 3 Zrotation Xrotation Yrotation
        JOINT RightKnee
        {
            OFFSET 0.0 -41.18320846557617 0.0
            CHANNELS 3 Zrotation Xrotation Yrotation
            JOINT RightFoot
            {
                OFFSET 0.0 -48.454429626464844 0.0
                CHANNELS 3 Zrotation Xrotation Yrotation
                End Site
                {
                    OFFSET 0.0 0.0 19.381771087646484
                }
            }
        }
    }
}
MOTION
Frames: 7
Frame Time: 0.03333333333333333
-46.70000076293945 75.70000457763672 -45.20000076293945 -46.72824057665841 -7.634728934035744 107.41620439651932 3.1498620760034476e-06 1.7098801606042303e-06 5.4122346915995605 96.65430581031626 13.351288867177932 -151.23984590564504 1.2978709274887962e-06 4.198852516618365e-06 37.12883145927241 0.0 0.0 0.0 -91.44110271675879 39.42269432630375 119.58544026130147 -2.790338925885991e-06 -3.856391721538212e-06 -34.039743647591195 3.1805546814635168e-15 0.0 0.0 153.8899422545056 -54.66862171847904 -130.55583413730187 51.09063590209683 8.852336140512925 -25.021884911654055 1.987846675914698e-16 -1.3793457181406746e-33 -7.951386703658792e-16 -172.1666769903493 -74.10211454980342 119.89125222439097 -81.72604430499572 6.704938075635884 163.16667165642315 -3.776908684237926e-15 2.6207568644672815e-32 -7.951386703658792e-16
-46.70000076293945 75.70000457763672 -46.29999923706055 -47.585810102637865 -6.7575062226995835 104.97870708342114 -8.974643782982125e-07 -1.1415933973366353e-06 6.6731477791253635 96.60526491896798 12.81282080010528 -152.7496190505033 6.209510395615936e-06 -8.942173844885236e-06 38.46866133337115 0.0 0.0 -6.3611093629270335e-15 -88.71978552646367 39.26590082012812 115.62743331093478 7.000491479471043e-07 9.282989658168625e-07 -32.05414174772102 0.0 0.0 -3.1805546814635168e-15 151.70063170142268 -56.099297587200105 -132.50679764208803 52.8943785871573 11.318566604271162 -36.58957652668045 0.0 0.0 -3.1805546814635176e-15 -168.78088056517117 -72.7343517529061 121.6330967982962 -81.08493670482832 6.1021127047139165 163.44844041033673 -3.9756933518293955e-16 -1.3793457181406746e-33 3.9756933518293955e-16
-46.39999771118164 75.30000305175781 -47.5 -48.077463716170634 -3.822400893099289 101.55692153113955 4.021775469372604e-06 6.615516383800123e-06 9.359074752032726 94.15664419502941 13.045234696016475 -155.58390717297107 1.0803160988827174e-06 1.063601277454842e-06 40.291526050133456 0.0 0.0 0.0 -89.21867363764284 39.55439421263244 113.78056766504889 4.350018205042113e-06 3.231263318345749e-06 -30.365991452286853 -4.770832022195275e-15 -6.3611093629270335e-15 -2.648343778830095e-31 145.60729265370895 -57.80295677840318 -135.96871499292186 55.403198440923916 10.802663676256842 -45.13877549107985 0.0 0.0 -7.951386703658791e-16 -176.11118065963646 -72.65567666128644 117.15800401075042 -80.81655009769263 6.885226716542723 159.3296901992463 -3.478731682850721e-16 0.0 0.0
-46.29999923706055 75.0999984741211 -48.599998474121094 -48.94518758390974 -6.762859538979797 98.28230014575011 8.667524132993049e-08 -1.32446429164683e-06 10.680988693900474 97.17243638183008 12.670099421409503 -156.74278952092672 2.681818393243252e-06 -1.2177227881193364e-06 42.42890208882939 6.361109362927033e-15 3.1805546814635168e-15 6.361109362927033e-15 -82.98775977293485 38.209197916208645 109.0715781988559 1.386472696074472e-06 8.389087833813327e-07 -28.505257153611076 3.1805546814635164e-15 6.3611093629270335e-15 6.3611093629270335e-15 146.5523589846873 -58.09398816110211 -137.50999417992878 57.68805016072869 10.719264746098805 -57.94854353639954 -7.951386703658792e-16 2.4138550067461804e-32 -3.4787316828507214e-15 -175.38994570657158 -71.65975095013455 114.96997678836577 -79.67153699886808 7.826844286502716 154.9108410803695 1.3914926731402886e-15 0.0 0.0
-46.099998474121094 74.9000015258789 -49.5 -49.30446503218674 -5.198579225232509 96.45818773104845 1.9725402171727353e-06 5.059858528616224e-06 11.141175912147476 96.62702507721995 12.75859409336291 -158.91715919555 -3.3630761512615795e-06 -6.938639374581624e-06 43.86715516363687 0.0 0.0 0.0 -81.50827469183518 37.57600484420501 106.22762849423182 -2.3961531073216157e-06 -1.444889548421707e-07 -26.496850720611313 -1.590277340731758e-15 6.3611093629270335e-15 -6.3611093629270335e-15 141.38305954273707 -59.2964856330567 -141.10194320001725 58.77483509318591 16.60411623017201 -79.17285424063967 0.0 0.0 -9.516815960941617e-15 -173.21586867037715 -71.48606178082531 117.09824169158638 -79.00431540506264 7.6256456109512225 154.22662783613237 1.1927080055488186e-15 3.1805546814635164e-15 -1.5902773407317582e-15
-45.89999771118164 74.80000305175781 -50.30000305175781 -49.794224860445205 -4.850441140875133 93.99236166613586 9.963197760845706e-07 -1.9280336119212462e-06 11.722718458252594 96.4400121957576 13.54164109165277 -160.92151752171253 -6.337596395980244e-06 5.632512860031673e-06 45.66609476221007 0.0 -3.1805546814635164e-15 0.0 -78.96638241199439 36.20873122460387 103.52319377949908 -3.5893884768427296e-06 6.930212297003122e-08 -25.150652939130573 3.531125038440127e-31 -6.3611093629270335e-15 6.3611093629270335e-15 136.38351767428398 -60.318852909828074 -144.49408075395456 60.80750888890422 15.915742344442279 -95.43710797136293 -8.707119845763009e-33 -3.975693351829396e-16 -2.5096564283423063e-15 -173.9800778032127 -71.72889246056761 116.93724365507823 -78.04768753108036 8.913599019700213 149.5479511533534 -1.1927080055488188e-15 1.6552148617688095e-32 -1.5902773407317584e-15
-45.69999694824219 75.19999694824219 -50.900001525878906 -50.03884695361162 -4.503820595872036 93.08934007941804 5.993162503247144e-07 2.559964139311981e-06 12.810783307917172 96.3350273744293 13.137888821900942 -160.89849460181543 -5.342315382334119e-06 -2.0581716708578161e-07 45.35445909192377 0.0 -3.1805546814635168e-15 0.0 -73.79733818940218 36.21663210125934 99.39083523509963 -5.795159290627487e-06 2.4112529404612553e-06 -23.75519363570189 3.1805546814635168e-15 1.7655625192200634e-31 6.3611093629270335e-15 135.37085715042252 -63.18119164793768 -147.1217906960475 62.88832901278788 15.495022702937362 -110.79504232477393 -6.957463365701443e-16 -4.969616689786748e-17 5.112493169618114e-15 -167.16541762953543 -72.26930181404475 121.58518646428726 -76.53879823382795 7.801030552579586 152.03170532109004 3.975693351829396e-16 2.758691436281349e-33 7.951386703658792e-16
